<?xml version="1.0" standalone="no"?>
<!DOCTYPE svg PUBLIC "-//W3C//DTD SVG 20010904//EN"
 "http://www.w3.org/TR/2001/REC-SVG-20010904/DTD/svg10.dtd">
<svg version="1.0" xmlns="http://www.w3.org/2000/svg"
 width="897.000000pt" height="897.000000pt" viewBox="0 0 897.000000 897.000000"
 preserveAspectRatio="xMidYMid meet">
<metadata>
Created by potrace 1.14, written by Peter Selinger 2001-2017
</metadata>
<g transform="translate(0.000000,897.000000) scale(0.100000,-0.100000)"
fill="#000000" stroke="none">
<path d="M4417 8964 c-1 -1 -67 -5 -147 -8 -80 -4 -161 -8 -180 -10 -19 -3
-64 -7 -100 -11 -120 -11 -305 -42 -485 -80 -237 -51 -576 -161 -805 -262 -86
-38 -321 -154 -380 -188 -36 -21 -85 -49 -110 -63 -128 -72 -433 -284 -561
-392 -239 -200 -559 -524 -648 -654 -8 -12 -17 -23 -20 -26 -26 -23 -190 -250
-267 -370 -189 -294 -368 -668 -480 -1005 -38 -116 -116 -401 -130 -479 -3
-16 -6 -32 -8 -35 -2 -3 -7 -28 -10 -54 -4 -26 -11 -71 -17 -100 -11 -55 -12
-65 -24 -162 -4 -32 -8 -67 -10 -75 -2 -9 -6 -52 -9 -96 -4 -43 -9 -108 -12
-144 -8 -83 -7 -433 0 -525 3 -38 8 -101 11 -140 55 -692 308 -1433 693 -2024
93 -142 268 -383 327 -447 5 -6 37 -42 70 -80 78 -91 331 -343 422 -423 535
-466 1181 -804 1861 -972 179 -44 191 -47 242 -55 19 -2 58 -9 85 -14 87 -17
115 -20 325 -44 208 -24 746 -25 869 -1 9 1 50 6 91 10 41 3 82 8 90 10 8 3
35 7 60 10 37 5 128 20 232 40 9 2 92 22 185 45 1072 265 2021 935 2640 1865
54 81 75 114 137 218 89 151 224 426 287 587 16 41 34 84 39 95 46 103 133
404 195 675 3 11 16 105 16 112 0 4 4 22 10 40 5 18 11 56 15 86 3 29 7 61 9
70 1 9 6 46 10 82 3 36 8 76 10 90 23 160 23 686 0 855 -2 17 -9 73 -15 125
-6 52 -17 131 -25 175 -8 44 -17 96 -20 115 -3 19 -15 72 -25 117 -11 46 -21
93 -24 105 -30 162 -166 553 -271 783 -157 345 -412 752 -629 1006 -17 19 -56
64 -86 99 -70 82 -314 326 -405 406 -265 232 -632 484 -890 609 -22 11 -51 27
-65 36 -14 8 -54 28 -90 44 -36 15 -92 41 -125 56 -87 40 -305 122 -417 158
-92 29 -374 104 -428 114 -14 3 -54 10 -90 17 -36 7 -76 14 -90 16 -14 3 -32
7 -40 9 -8 2 -41 7 -73 10 -32 4 -67 8 -77 10 -10 2 -50 7 -87 10 -37 4 -79 8
-93 11 -41 6 -458 22 -463 18z"/>
</g>
</svg>
